<svg xmlns="http://www.w3.org/2000/svg" viewBox="139.453 8.914 96.895 22.772">
  <defs>
    <style>
      .cls-1 {
        fill: #bedfee;
      }

      .cls-2 {
        fill: #e5b64a;
      }

      .cls-3 {
        fill: #231815;
      }
    </style>
  </defs>
  <g id="グループ化_1" data-name="グループ化 1" transform="translate(139.453 8.914)">
    <path id="パス_1" data-name="パス 1" class="cls-1" d="M23.23,25.2c.045-.09.09-.135.135-.225.045-.045.09-.135.135-.18l.135-.27c.045-.045.045-.09.09-.135.045-.135.09-.225.135-.36,0-.045.045-.09.045-.135a1.314,1.314,0,0,0,.09-.405V23.4c.045-.18.045-.315.09-.5a5.182,5.182,0,0,0-.135-1.71c-.045-.18-.135-.36-.18-.5-.045-.09-.09-.135-.09-.18a3.239,3.239,0,0,0-1.215-1.26h0a1.6,1.6,0,0,0-.405-.18c-.045,0-.09-.045-.135-.045-.09-.045-.18-.045-.27-.09a.34.34,0,0,1-.18-.045c-.09,0-.18-.045-.27-.045h-.45a.271.271,0,0,0-.18.045.337.337,0,0,0-.225.045c-.09,0-.135.045-.225.045s-.135.045-.225.045c-.09.045-.135.045-.225.09s-.135.045-.225.09a.984.984,0,0,0-.225.135c-.045.045-.135.045-.18.09h0a3.287,3.287,0,0,0-2.97-.45h-.045c-.135.045-.315.135-.45.18h0a3.27,3.27,0,0,0-1.215,1.26h0a2.194,2.194,0,0,0-.135.315,4.052,4.052,0,0,0-.27,2.115v.09c0,.09.045.135.045.225a.271.271,0,0,0,.045.18c0,.045,0,.045.045.09a4.9,4.9,0,0,0,1.485,2.475c.135.09.225.18.36.27h0c0,.18-.045.36-.045.5v.945a.406.406,0,0,0,.045.225.571.571,0,0,0,.045.27c0,.045.045.135.045.18a1.949,1.949,0,0,0,.045.225c0,.045.045.135.045.18,0,.09.045.135.045.225,0,.045.045.135.045.18a.234.234,0,0,0,.09.18c0,.045.045.09.045.135.045.045.045.135.09.18,0,.045.045.09.045.135.045.045.045.09.09.135a.157.157,0,0,0,.045.09c.045.045.045.09.09.135,0,.045.045.045.045.09l.09.09.045.045c.045,0,.045.045.09.045a.044.044,0,0,1,.045.045h.135c.045,0,.045,0,.09-.045a.044.044,0,0,0,.045-.045c.045-.045.045-.09.09-.135v-.045h0c.045-.09.045-.135.09-.225h0a9.354,9.354,0,0,1,.225-1.935,1.416,1.416,0,0,1,.855-.9A1.4,1.4,0,0,1,19,27c.225,0,.45.045.45.09a1.32,1.32,0,0,1,.855.9,3.893,3.893,0,0,1,.18,1.44c.045,2.385,1.98-.27,1.575-3.375l.045-.045h0l.135-.135c.09-.045.135-.135.225-.18l.135-.135.225-.225c.045-.045.09-.135.135-.18C23.095,25.378,23.185,25.288,23.23,25.2Z" transform="translate(-7.658 -10.346)"/>
    <path id="パス_2" data-name="パス 2" class="cls-2" d="M209.84,9.08a1.805,1.805,0,0,1-1.8-1.8.18.18,0,0,0-.36,0,1.805,1.805,0,0,1-1.8,1.8.18.18,0,1,0,0,.36,1.805,1.805,0,0,1,1.8,1.8.18.18,0,0,0,.36,0,1.805,1.805,0,0,1,1.8-1.8.194.194,0,0,0,.18-.18C209.975,9.17,209.93,9.08,209.84,9.08Z" transform="translate(-113.125 -3.905)"/>
    <path id="パス_3" data-name="パス 3" class="cls-2" d="M114.54,9.08a1.805,1.805,0,0,1-1.8-1.8.18.18,0,0,0-.36,0,1.805,1.805,0,0,1-1.8,1.8.18.18,0,1,0,0,.36,1.805,1.805,0,0,1,1.8,1.8.18.18,0,0,0,.36,0,1.805,1.805,0,0,1,1.8-1.8.194.194,0,0,0,.18-.18C114.675,9.17,114.63,9.08,114.54,9.08Z" transform="translate(-60.715 -3.905)"/>
    <g id="グループ化_1-2" data-name="グループ化 1" transform="translate(29.613 4.68)">
      <path id="パス_4" data-name="パス 4" class="cls-3" d="M65.8,10.4h.54V21.7L77.906,10.4h.72l-7.246,7.066L78.9,27.142h-.63l-7.246-9.316-4.68,4.545v4.77H65.8Z" transform="translate(-65.8 -10.4)"/>
      <path id="パス_5" data-name="パス 5" class="cls-3" d="M114.6,21h.5V32.926h-.5Z" transform="translate(-92.638 -16.23)"/>
      <path id="パス_6" data-name="パス 6" class="cls-3" d="M137.545,20.669h.5v3.825a5.218,5.218,0,0,1,4.906-4.1v.5h-.135c-2.97,0-4.815,3.285-4.815,5.581V32.64h-.5V20.669Z" transform="translate(-105.232 -15.899)"/>
      <path id="パス_7" data-name="パス 7" class="cls-3" d="M165.1,26.656v-.045c0-3.51,2.43-6.211,5.716-6.211,3.78,0,5.491,3.33,5.491,6.3v.09H165.64a5.448,5.448,0,0,0,5.446,5.626,5.529,5.529,0,0,0,4.41-2.43l.405.27a5.912,5.912,0,0,1-4.861,2.61A5.84,5.84,0,0,1,165.1,26.656Zm10.711-.315c-.09-2.7-1.8-5.446-4.951-5.446-2.97,0-5.041,2.34-5.176,5.446Z" transform="translate(-120.41 -15.9)"/>
      <path id="パス_8" data-name="パス 8" class="cls-3" d="M209.9,21h.5V32.926h-.5Z" transform="translate(-145.048 -16.23)"/>
    </g>
    <g id="グループ化_2" data-name="グループ化 2">
      <path id="パス_9" data-name="パス 9" class="cls-3" d="M5.086,6.211V1.665h.5V6.211H11.3V0h.5V2.52h8.236v.5H11.836v3.24H22.772v.5H0v-.5H5.086ZM19.937,21.152V7.741h.5V22.772h-.5V21.6H2.745v1.125h-.5V7.741h.5V21.152Z"/>
    </g>
  </g>
</svg>
